<?xml version="1.0" encoding="UTF-8" standalone="no"?>
<!-- Created with Inkscape (http://www.inkscape.org/) -->

<svg
   width="12.5cm"
   height="7cm"
   viewBox="0 0 125 70"
   version="1.1"
   id="svg5"
   inkscape:version="1.1 (c68e22c387, 2021-05-23)"
   sodipodi:docname="design.svg"
   xmlns:inkscape="http://www.inkscape.org/namespaces/inkscape"
   xmlns:sodipodi="http://sodipodi.sourceforge.net/DTD/sodipodi-0.dtd"
   xmlns="http://www.w3.org/2000/svg"
   xmlns:svg="http://www.w3.org/2000/svg">
  <sodipodi:namedview
     id="namedview7"
     pagecolor="#ffffff"
     bordercolor="#999999"
     borderopacity="1"
     inkscape:pageshadow="0"
     inkscape:pageopacity="0"
     inkscape:pagecheckerboard="0"
     inkscape:document-units="mm"
     showgrid="true"
     units="cm"
     inkscape:zoom="3.6989384"
     inkscape:cx="112.19435"
     inkscape:cy="162.2087"
     inkscape:window-width="1680"
     inkscape:window-height="985"
     inkscape:window-x="0"
     inkscape:window-y="0"
     inkscape:window-maximized="1"
     inkscape:current-layer="layer1"
     inkscape:snap-object-midpoints="false"
     inkscape:snap-center="false"
     inkscape:snap-text-baseline="true">
    <inkscape:grid
       type="xygrid"
       id="grid824"
       units="cm"
       spacingx="2.4999999"
       spacingy="2.4999999"
       empspacing="4" />
  </sodipodi:namedview>
  <defs
     id="defs2">
    <marker
       style="overflow:visible"
       id="Arrow2Lend"
       refX="0"
       refY="0"
       orient="auto"
       inkscape:stockid="Arrow2Lend"
       inkscape:isstock="true">
      <path
         transform="matrix(-1.1,0,0,-1.1,-1.1,0)"
         d="M 8.7185878,4.0337352 -2.2072895,0.01601326 8.7185884,-4.0017078 c -1.7454984,2.3720609 -1.7354408,5.6174519 -6e-7,8.035443 z"
         style="fill:context-stroke;fill-rule:evenodd;stroke-width:0.625;stroke-linejoin:round"
         id="path28183" />
    </marker>
    <marker
       style="overflow:visible"
       id="Arrow1Mend"
       refX="0"
       refY="0"
       orient="auto"
       inkscape:stockid="Arrow1Mend"
       inkscape:isstock="true">
      <path
         transform="matrix(-0.4,0,0,-0.4,-4,0)"
         style="fill:context-stroke;fill-rule:evenodd;stroke:context-stroke;stroke-width:1pt"
         d="M 0,0 5,-5 -12.5,0 5,5 Z"
         id="path28171" />
    </marker>
    <marker
       style="overflow:visible"
       id="Arrow1Lend"
       refX="0"
       refY="0"
       orient="auto"
       inkscape:stockid="Arrow1Lend"
       inkscape:isstock="true">
      <path
         transform="matrix(-0.8,0,0,-0.8,-10,0)"
         style="fill:context-stroke;fill-rule:evenodd;stroke:context-stroke;stroke-width:1pt"
         d="M 0,0 5,-5 -12.5,0 5,5 Z"
         id="path28165" />
    </marker>
    <rect
       x="37.795273"
       y="18.897636"
       width="56.692917"
       height="56.692913"
       id="rect5414" />
    <rect
       x="37.795273"
       y="75.590546"
       width="75.590546"
       height="56.692909"
       id="rect2812" />
    <rect
       x="37.795273"
       y="18.897636"
       width="75.590546"
       height="56.692909"
       id="rect16172" />
    <rect
       x="37.795273"
       y="18.897636"
       width="75.590546"
       height="56.692909"
       id="rect16959" />
    <rect
       x="37.795273"
       y="18.897636"
       width="56.692917"
       height="56.692913"
       id="rect18802" />
    <rect
       x="37.795273"
       y="18.897636"
       width="56.692917"
       height="56.692913"
       id="rect18814" />
    <rect
       x="37.795273"
       y="18.897636"
       width="56.692917"
       height="56.692913"
       id="rect18826" />
    <rect
       x="37.795273"
       y="18.897636"
       width="56.692917"
       height="56.692913"
       id="rect18838" />
    <rect
       x="37.795273"
       y="18.897636"
       width="56.692917"
       height="56.692913"
       id="rect18860" />
    <rect
       x="37.795273"
       y="18.897636"
       width="56.692917"
       height="56.692913"
       id="rect18862" />
    <rect
       x="37.795273"
       y="18.897636"
       width="56.692917"
       height="56.692913"
       id="rect21686" />
    <rect
       x="37.795273"
       y="18.897636"
       width="56.692917"
       height="56.692913"
       id="rect21688" />
  </defs>
  <g
     inkscape:label="Calque 1"
     inkscape:groupmode="layer"
     id="layer1">
    <rect
       style="fill:#ffffff;stroke:none;stroke-width:0.264583;stroke-linecap:round;stroke-linejoin:round;stroke-opacity:1;fill-opacity:1"
       id="rect10661"
       width="124.99999"
       height="70"
       x="0"
       y="0"
       ry="0" />
    <text
       xml:space="preserve"
       transform="scale(0.26458333)"
       id="text2810"
       style="font-style:normal;font-variant:normal;font-weight:normal;font-stretch:normal;font-size:3.77953px;line-height:8.39895px;font-family:Cantarell;-inkscape-font-specification:Cantarell;letter-spacing:0px;word-spacing:0px;white-space:pre;shape-inside:url(#rect2812);fill:#252525;fill-opacity:1;stroke:none;stroke-width:1px;stroke-linecap:butt;stroke-linejoin:miter;stroke-opacity:1" />
    <g
       id="g16867"
       transform="translate(-4.9999988,19.999999)">
      <path
         style="fill:none;fill-rule:evenodd;stroke:#252525;stroke-width:0.264583px;stroke-linecap:butt;stroke-linejoin:round;stroke-opacity:1"
         d="M 9.9999995,9.9999995 H 14.999999 V 4.9999997 Z"
         id="path1808" />
      <path
         style="fill:none;fill-rule:evenodd;stroke:#252525;stroke-width:0.264583px;stroke-linecap:butt;stroke-linejoin:miter;stroke-opacity:1"
         d="M 10.000001,19.999999 V 9.9999996 L 14.999999,4.9999998 25,5 v 14.999999 z"
         id="path1613"
         sodipodi:nodetypes="cccccc" />
      <text
         xml:space="preserve"
         transform="scale(0.26458333)"
         id="text5412"
         style="font-style:normal;font-variant:normal;font-weight:normal;font-stretch:normal;font-size:15.1181px;line-height:60.4724px;font-family:Cantarell;-inkscape-font-specification:Cantarell;text-align:center;letter-spacing:0px;word-spacing:0px;white-space:pre;shape-inside:url(#rect5414);fill:#252525;fill-opacity:1;stroke:none;stroke-width:1px;stroke-linecap:butt;stroke-linejoin:miter;stroke-opacity:1"
         x="14.64748"
         y="0"><tspan
           x="45.407156"
           y="53.262069"
           id="tspan11914">.chom</tspan></text>
    </g>
    <g
       id="g18812"
       transform="translate(44.999999,19.999999)">
      <path
         style="fill:none;fill-rule:evenodd;stroke:#252525;stroke-width:0.264583px;stroke-linecap:butt;stroke-linejoin:round;stroke-opacity:1"
         d="M 9.9999995,9.9999995 H 14.999999 V 4.9999997 Z"
         id="path18804" />
      <path
         style="fill:none;fill-rule:evenodd;stroke:#252525;stroke-width:0.264583px;stroke-linecap:butt;stroke-linejoin:miter;stroke-opacity:1"
         d="M 10.000001,19.999999 V 9.9999996 L 14.999999,4.9999998 25,5 v 14.999999 z"
         id="path18806"
         sodipodi:nodetypes="cccccc" />
      <text
         xml:space="preserve"
         transform="scale(0.26458333)"
         id="text18810"
         style="font-style:normal;font-variant:normal;font-weight:normal;font-stretch:normal;font-size:15.1181px;line-height:60.4724px;font-family:Cantarell;-inkscape-font-specification:Cantarell;text-align:center;letter-spacing:0px;word-spacing:0px;white-space:pre;shape-inside:url(#rect18814);fill:#252525;fill-opacity:1;stroke:none;stroke-width:1px;stroke-linecap:butt;stroke-linejoin:miter;stroke-opacity:1"
         x="14.64748"
         y="0"><tspan
           x="59.436745"
           y="53.262069"
           id="tspan11916">IR</tspan></text>
    </g>
    <g
       id="g18836"
       transform="translate(94.999997)">
      <path
         style="fill:none;fill-rule:evenodd;stroke:#252525;stroke-width:0.264583px;stroke-linecap:butt;stroke-linejoin:round;stroke-opacity:1"
         d="M 9.9999995,9.9999995 H 14.999999 V 4.9999997 Z"
         id="path18828" />
      <path
         style="fill:none;fill-rule:evenodd;stroke:#252525;stroke-width:0.264583px;stroke-linecap:butt;stroke-linejoin:miter;stroke-opacity:1"
         d="M 10.000001,19.999999 V 9.9999996 L 14.999999,4.9999998 25,5 v 14.999999 z"
         id="path18830"
         sodipodi:nodetypes="cccccc" />
      <text
         xml:space="preserve"
         transform="scale(0.26458333)"
         id="text18834"
         style="font-style:normal;font-variant:normal;font-weight:normal;font-stretch:normal;font-size:15.1181px;line-height:60.4724px;font-family:Cantarell;-inkscape-font-specification:Cantarell;text-align:center;letter-spacing:0px;word-spacing:0px;white-space:pre;shape-inside:url(#rect18838);fill:#252525;fill-opacity:1;stroke:none;stroke-width:1px;stroke-linecap:butt;stroke-linejoin:miter;stroke-opacity:1"
         x="14.64748"
         y="0"><tspan
           x="55.407764"
           y="53.262069"
           id="tspan11918">.ml</tspan></text>
    </g>
    <g
       id="g18858"
       transform="translate(94.999997,19.999999)">
      <path
         style="fill:none;fill-rule:evenodd;stroke:#252525;stroke-width:0.264583px;stroke-linecap:butt;stroke-linejoin:round;stroke-opacity:1"
         d="M 9.9999995,9.9999995 H 14.999999 V 4.9999997 Z"
         id="path18850" />
      <path
         style="fill:none;fill-rule:evenodd;stroke:#252525;stroke-width:0.264583px;stroke-linecap:butt;stroke-linejoin:miter;stroke-opacity:1"
         d="M 10.000001,19.999999 V 9.9999996 L 14.999999,4.9999998 25,5 v 14.999999 z"
         id="path18852"
         sodipodi:nodetypes="cccccc" />
      <text
         xml:space="preserve"
         transform="scale(0.26458333)"
         id="text18856"
         style="font-style:normal;font-variant:normal;font-weight:normal;font-stretch:normal;font-size:15.1181px;line-height:60.4724px;font-family:Cantarell;-inkscape-font-specification:Cantarell;text-align:center;letter-spacing:0px;word-spacing:0px;white-space:pre;shape-inside:url(#rect18862);fill:#252525;fill-opacity:1;stroke:none;stroke-width:1px;stroke-linecap:butt;stroke-linejoin:miter;stroke-opacity:1"
         x="14.64748"
         y="0"><tspan
           x="57.849352"
           y="53.262069"
           id="tspan11920">.rs</tspan></text>
    </g>
    <g
       id="g21684"
       transform="translate(94.999999,39.999998)">
      <path
         style="fill:none;fill-rule:evenodd;stroke:#252525;stroke-width:0.264583px;stroke-linecap:butt;stroke-linejoin:round;stroke-opacity:1"
         d="M 9.9999995,9.9999995 H 14.999999 V 4.9999997 Z"
         id="path21676" />
      <path
         style="fill:none;fill-rule:evenodd;stroke:#252525;stroke-width:0.264583px;stroke-linecap:butt;stroke-linejoin:miter;stroke-opacity:1"
         d="M 10.000001,19.999999 V 9.9999996 L 14.999999,4.9999998 25,5 v 14.999999 z"
         id="path21678"
         sodipodi:nodetypes="cccccc" />
      <text
         xml:space="preserve"
         transform="scale(0.26458333)"
         id="text21682"
         style="font-style:normal;font-variant:normal;font-weight:normal;font-stretch:normal;font-size:15.1181px;line-height:60.4724px;font-family:Cantarell;-inkscape-font-specification:Cantarell;text-align:center;letter-spacing:0px;word-spacing:0px;white-space:pre;shape-inside:url(#rect21688);fill:#252525;fill-opacity:1;stroke:none;stroke-width:1px;stroke-linecap:butt;stroke-linejoin:miter;stroke-opacity:1"
         x="14.64748"
         y="0"><tspan
           x="57.048085"
           y="53.262069"
           id="tspan11922">.rb</tspan></text>
    </g>
    <path
       id="rect23590"
       style="fill:#252525;fill-opacity:1;stroke:none;stroke-width:0.264583;stroke-linecap:round;stroke-linejoin:round"
       d="M 30.000238,24.99993 V 40.000048 H 44.999837 V 24.99993 Z m 5.396052,1.570447 c 0.386472,0 0.527122,0.01095 0.534334,0.04341 0.0072,0.02525 0.0544,0.288848 0.101285,0.581361 l 0.0832,0.534334 0.234612,0.0832 c 0.130024,0.04328 0.32155,0.126249 0.426328,0.180351 0.10478,0.0541 0.209365,0.08677 0.234611,0.07235 0.02525,-0.01443 0.234429,-0.162578 0.47284,-0.332279 l 0.426331,-0.306959 0.375687,0.37569 0.37207,0.375171 -0.34313,0.466119 -0.34675,0.465606 0.130226,0.278019 c 0.06853,0.151667 0.14424,0.350448 0.16588,0.440801 l 0.04341,0.162263 0.490926,0.07958 c 0.274479,0.04707 0.530855,0.09047 0.577744,0.101285 0.07935,0.01821 0.07956,0.02526 0.07235,0.545187 l -0.01085,0.5271 -0.537954,0.0832 c -0.292512,0.04346 -0.556111,0.08685 -0.581358,0.09767 -0.02543,0.0072 -0.0543,0.06891 -0.06873,0.130225 -0.01082,0.0615 -0.08635,0.252495 -0.16588,0.422196 -0.07953,0.169701 -0.1338,0.325117 -0.119372,0.350366 0.01082,0.02164 0.158961,0.230812 0.328662,0.469223 l 0.306957,0.426331 -0.375687,0.375687 -0.375688,0.371552 -0.465605,-0.34313 -0.466122,-0.346234 -0.278019,0.130225 c -0.151667,0.06853 -0.349933,0.144241 -0.440283,0.165883 l -0.162779,0.04341 -0.07958,0.490926 c -0.04707,0.274479 -0.09046,0.530852 -0.101285,0.577742 -0.01803,0.07935 -0.02475,0.07956 -0.544669,0.07235 l -0.527616,-0.01085 -0.08268,-0.53795 c -0.04346,-0.292513 -0.08685,-0.556112 -0.09767,-0.581361 -0.0072,-0.02525 -0.06891,-0.0543 -0.130225,-0.06873 -0.0615,-0.01082 -0.253013,-0.08635 -0.422714,-0.165883 -0.169701,-0.07953 -0.324602,-0.1338 -0.349848,-0.119372 -0.02164,0.01082 -0.231328,0.158962 -0.469739,0.328663 l -0.425815,0.306959 -0.375687,-0.375687 -0.371554,-0.375171 0.342614,-0.466122 0.34675,-0.465606 -0.130226,-0.278019 c -0.06853,-0.151667 -0.14424,-0.350448 -0.16588,-0.440801 l -0.04341,-0.162264 -0.490926,-0.07958 c -0.274479,-0.04707 -0.530844,-0.09046 -0.574125,-0.101285 -0.08296,-0.01803 -0.0832,-0.02885 -0.0832,-0.537951 3e-6,-0.386292 0.01096,-0.527121 0.04703,-0.534334 0.02164,-0.0072 0.285229,-0.0544 0.577742,-0.101288 l 0.534852,-0.0832 0.08268,-0.234611 c 0.04328,-0.130027 0.126248,-0.321554 0.18035,-0.426331 0.0541,-0.104778 0.08677,-0.209363 0.07235,-0.234612 -0.01443,-0.02525 -0.162579,-0.234429 -0.33228,-0.472837 l -0.306959,-0.426331 0.375687,-0.375689 0.375172,-0.371552 0.466121,0.34313 0.465606,0.346234 0.278019,-0.12971 c 0.151667,-0.06853 0.350449,-0.144756 0.440799,-0.166396 l 0.162263,-0.04289 0.07958,-0.491445 c 0.04707,-0.274476 0.09047,-0.530852 0.101287,-0.577741 0.01821,-0.07935 0.02903,-0.0794 0.537951,-0.07958 z m -0.115755,2.49804 c -0.38453,0.01598 -0.746292,0.179523 -1.046964,0.477488 -0.635521,0.63931 -0.635521,1.607246 0,2.246376 0.639307,0.635522 1.607246,0.635522 2.246373,0 0.635521,-0.63931 0.635521,-1.607245 0,-2.246376 -0.238231,-0.234801 -0.498189,-0.378976 -0.808736,-0.443899 -0.131828,-0.028 -0.262496,-0.03892 -0.390673,-0.03359 z m 5.819799,3.186885 0.397393,0.108519 0.396875,0.108006 -0.02119,0.195336 c -0.01443,0.108384 -0.0326,0.313918 -0.04703,0.45837 l -0.0217,0.259932 0.122991,0.0832 c 0.06871,0.04707 0.19852,0.147834 0.28887,0.223759 l 0.1695,0.137459 0.38654,-0.148313 c 0.216768,-0.07953 0.4078,-0.136911 0.433049,-0.126089 0.03985,0.01443 0.429884,0.674936 0.408241,0.689363 -0.0072,0.0036 -0.169875,0.12998 -0.361217,0.285253 -0.332187,0.26348 -0.346665,0.281752 -0.317809,0.382924 0.01443,0.0541 0.03983,0.219876 0.05426,0.367934 l 0.02532,0.264068 0.393258,0.176734 c 0.216768,0.09739 0.393774,0.191267 0.393774,0.212907 0,0.01821 -0.04357,0.195207 -0.09767,0.390157 -0.115599,0.411718 -0.06095,0.38634 -0.65319,0.31781 -0.346797,-0.04328 -0.346919,-0.04316 -0.404627,0.04341 -0.02886,0.04707 -0.133419,0.180507 -0.227375,0.296106 l -0.177253,0.209291 0.155546,0.414962 c 0.08314,0.227589 0.144674,0.419105 0.137462,0.422711 -0.03625,0.02904 -0.675455,0.386541 -0.689883,0.386541 -0.01082,0 -0.137191,-0.155395 -0.285252,-0.34313 -0.260051,-0.335796 -0.270963,-0.34308 -0.393774,-0.325046 -0.06871,0.01082 -0.245695,0.02898 -0.386541,0.04341 -0.144452,0.01082 -0.263548,0.0326 -0.263548,0.04703 0,0.01443 -0.07969,0.198856 -0.177253,0.404625 l -0.176731,0.382407 -0.368453,-0.104904 c -0.198737,-0.0541 -0.375214,-0.108035 -0.389642,-0.118856 -0.01803,-0.01064 -0.0113,-0.19526 0.01395,-0.408244 0.06149,-0.520102 0.06546,-0.491136 -0.05374,-0.563272 -0.05428,-0.03264 -0.184081,-0.133408 -0.285253,-0.223758 l -0.180869,-0.162782 -0.386022,0.144695 c -0.213164,0.07953 -0.411935,0.144177 -0.437184,0.144177 -0.03985,0 -0.411861,-0.617218 -0.411861,-0.685747 0,-0.01443 0.155398,-0.148035 0.343133,-0.292489 0.343008,-0.263657 0.346675,-0.267354 0.321426,-0.393774 -0.01443,-0.06871 -0.03621,-0.238448 -0.04702,-0.375687 l -0.02119,-0.245462 -0.397391,-0.180869 c -0.21677,-0.100992 -0.401021,-0.183978 -0.404627,-0.187585 -0.01443,-0.01082 0.198501,-0.750922 0.220141,-0.772562 0.01082,-0.01082 0.184367,7.2e-5 0.382923,0.02532 0.505495,0.05771 0.516457,0.05409 0.588595,-0.06511 0.03264,-0.05428 0.129789,-0.18115 0.220141,-0.278535 l 0.155546,-0.176734 -0.151929,-0.415478 c -0.180522,-0.480247 -0.205845,-0.411247 0.274402,-0.67851 l 0.281636,-0.155549 0.278019,0.34675 c 0.151667,0.187735 0.292563,0.343122 0.31781,0.339516 0.02164,0 0.19156,-0.02177 0.375689,-0.04341 l 0.335897,-0.04341 0.183967,-0.400492 z m -0.86868,2.003494 c -0.297,0.102907 -0.558004,0.32702 -0.731221,0.653709 -0.07592,0.141025 -0.08682,0.212934 -0.08682,0.52348 0,0.324975 0.01094,0.379114 0.101288,0.552421 0.13363,0.252839 0.350213,0.462156 0.599445,0.581361 0.173307,0.07953 0.249015,0.09405 0.5271,0.09405 0.281512,0 0.353793,-0.01472 0.527101,-0.101285 0.249229,-0.122815 0.476644,-0.361133 0.603062,-0.632005 0.133633,-0.292513 0.137239,-0.696564 0,-0.98547 -0.130024,-0.281691 -0.321339,-0.480282 -0.592212,-0.613915 -0.317759,-0.157078 -0.650745,-0.175255 -0.947745,-0.07235 z" />
    <g
       transform="matrix(0.00180341,0,0,-0.00180341,23.695962,44.354391)"
       id="g16858"
       style="fill:#fb1b1b;fill-opacity:1;stroke:none" />
    <path
       id="path24069"
       style="fill:#252525;fill-opacity:1;stroke:none;stroke-width:0.264583;stroke-linecap:round;stroke-linejoin:round"
       d="M 79.999999,24.99988 V 39.999998 H 94.999598 V 24.99988 Z m 5.396052,1.570447 c 0.386472,0 0.527122,0.01095 0.534334,0.04341 0.0072,0.02525 0.0544,0.288848 0.101285,0.581361 l 0.0832,0.534334 0.234612,0.0832 c 0.130024,0.04328 0.32155,0.126248 0.426328,0.18035 0.10478,0.0541 0.209365,0.08678 0.234611,0.07235 0.02525,-0.01443 0.234429,-0.162578 0.47284,-0.332279 l 0.426331,-0.306959 0.375687,0.375689 0.37207,0.375172 -0.34313,0.466119 -0.34675,0.465605 0.130226,0.278019 c 0.06853,0.151667 0.14424,0.350449 0.16588,0.440801 l 0.04341,0.162264 0.490926,0.07958 c 0.274479,0.04707 0.530855,0.09047 0.577744,0.101286 0.07935,0.01821 0.07956,0.02526 0.07234,0.545187 l -0.01085,0.5271 -0.537954,0.0832 c -0.292512,0.04346 -0.556111,0.08685 -0.581358,0.09767 -0.02543,0.0072 -0.0543,0.06891 -0.06873,0.130225 -0.01082,0.06149 -0.08635,0.252494 -0.16588,0.422195 -0.07953,0.169702 -0.1338,0.325118 -0.119372,0.350367 0.01082,0.02164 0.158961,0.230812 0.328662,0.469223 l 0.306957,0.426331 -0.375687,0.375687 -0.375688,0.371552 -0.465605,-0.343131 -0.466122,-0.346233 -0.278019,0.130225 c -0.151667,0.06853 -0.349933,0.14424 -0.440283,0.165883 l -0.162779,0.04341 -0.07958,0.490926 c -0.04707,0.274479 -0.09046,0.530852 -0.101285,0.577742 -0.01803,0.07935 -0.02475,0.07956 -0.544669,0.07235 l -0.527616,-0.01085 -0.08268,-0.537951 c -0.04346,-0.292512 -0.08685,-0.556112 -0.09767,-0.581361 -0.0072,-0.02525 -0.06891,-0.0543 -0.130225,-0.06873 -0.0615,-0.01082 -0.253013,-0.08635 -0.422714,-0.165883 -0.169701,-0.07953 -0.324602,-0.1338 -0.349848,-0.119372 -0.02164,0.01082 -0.231328,0.158962 -0.469739,0.328663 l -0.425817,0.306945 -0.375687,-0.375688 -0.371554,-0.375171 0.342614,-0.466122 0.34675,-0.465605 -0.130226,-0.278019 c -0.06853,-0.151667 -0.14424,-0.350449 -0.16588,-0.440801 l -0.04341,-0.162264 -0.490926,-0.07958 c -0.274479,-0.04707 -0.530844,-0.09046 -0.574125,-0.101285 -0.08296,-0.01803 -0.0832,-0.02885 -0.0832,-0.537951 3e-6,-0.386292 0.01096,-0.527122 0.04703,-0.534334 0.02164,-0.0072 0.285229,-0.0544 0.577742,-0.101288 l 0.534852,-0.0832 0.08268,-0.234612 c 0.04328,-0.130026 0.126248,-0.321553 0.18035,-0.426331 0.0541,-0.104777 0.08677,-0.209362 0.07235,-0.234611 -0.01443,-0.02525 -0.162579,-0.234429 -0.33228,-0.472837 l -0.306959,-0.426331 0.375687,-0.37569 0.375172,-0.371551 0.466121,0.34313 0.465606,0.346233 0.278019,-0.129709 c 0.151667,-0.06853 0.350449,-0.144756 0.440799,-0.166396 l 0.162263,-0.04289 0.07958,-0.491445 c 0.04707,-0.274476 0.09047,-0.530852 0.101287,-0.577741 0.01821,-0.07935 0.02903,-0.0794 0.537951,-0.07958 z m -0.115755,2.49804 c -0.38453,0.01598 -0.746292,0.179522 -1.046964,0.477488 -0.635521,0.63931 -0.635521,1.607246 0,2.246376 0.639307,0.635521 1.607246,0.635521 2.246373,0 0.635521,-0.63931 0.635521,-1.607246 0,-2.246376 -0.238231,-0.234802 -0.498189,-0.378976 -0.808736,-0.443899 -0.131828,-0.028 -0.262496,-0.03892 -0.390673,-0.03359 z m 5.819799,3.186885 0.397393,0.108519 0.396875,0.108005 -0.02119,0.195337 c -0.01443,0.108384 -0.0326,0.313917 -0.04703,0.458369 l -0.0217,0.259932 0.122991,0.0832 c 0.06871,0.04707 0.19852,0.147833 0.28887,0.223758 l 0.1695,0.137459 0.38654,-0.148312 c 0.216768,-0.07953 0.4078,-0.136911 0.433049,-0.12609 0.03985,0.01443 0.429884,0.674936 0.408241,0.689364 -0.0072,0.0036 -0.169875,0.129979 -0.361217,0.285253 -0.332187,0.26348 -0.346665,0.281752 -0.317809,0.382923 0.01443,0.0541 0.03983,0.219877 0.05426,0.367935 l 0.02532,0.264068 0.393258,0.176733 c 0.216768,0.09739 0.393774,0.191268 0.393774,0.212908 0,0.01821 -0.04357,0.195207 -0.09767,0.390157 -0.115599,0.411718 -0.06095,0.386339 -0.65319,0.31781 -0.346797,-0.04328 -0.346919,-0.04316 -0.404627,0.04341 -0.02886,0.04707 -0.133419,0.180507 -0.227375,0.296106 l -0.177253,0.209291 0.155546,0.414962 c 0.08314,0.227589 0.144674,0.419105 0.137462,0.422711 -0.03625,0.02904 -0.675455,0.38654 -0.689883,0.38654 -0.01082,0 -0.137191,-0.155395 -0.285252,-0.34313 -0.260051,-0.335796 -0.270963,-0.34308 -0.393774,-0.325046 -0.06871,0.01082 -0.245695,0.02898 -0.386541,0.04341 -0.144452,0.01082 -0.263548,0.0326 -0.263548,0.04703 0,0.01443 -0.07969,0.198856 -0.177253,0.404625 l -0.176731,0.382407 -0.368453,-0.104904 c -0.198737,-0.0541 -0.375214,-0.108035 -0.389642,-0.118857 -0.01803,-0.01064 -0.0113,-0.195259 0.01395,-0.408244 0.0615,-0.520102 0.06546,-0.491135 -0.05374,-0.563271 -0.05428,-0.03264 -0.184082,-0.133408 -0.285253,-0.223758 l -0.180864,-0.16279 -0.386022,0.144696 c -0.213164,0.07953 -0.411935,0.144177 -0.437184,0.144177 -0.03985,0 -0.411861,-0.617218 -0.411861,-0.685748 0,-0.01443 0.155398,-0.148034 0.343133,-0.292488 0.343008,-0.263658 0.346675,-0.267354 0.321426,-0.393775 -0.01443,-0.06871 -0.0362,-0.238447 -0.04702,-0.375687 l -0.02119,-0.245462 -0.397391,-0.180869 c -0.216773,-0.100991 -0.401023,-0.183978 -0.404629,-0.187584 -0.01443,-0.01082 0.198501,-0.750922 0.220141,-0.772562 0.01082,-0.01082 0.184367,7.1e-5 0.382923,0.02532 0.505495,0.05771 0.516457,0.05409 0.588595,-0.06511 0.03264,-0.05428 0.129789,-0.181149 0.220141,-0.278534 l 0.155546,-0.176738 -0.151929,-0.415478 c -0.180522,-0.480248 -0.205846,-0.411247 0.274402,-0.678511 l 0.281636,-0.155548 0.278019,0.346749 c 0.151667,0.187736 0.292563,0.343123 0.317809,0.339516 0.02164,0 0.191561,-0.02177 0.37569,-0.04341 l 0.335897,-0.04341 0.183967,-0.400492 z m -0.86868,2.003494 c -0.297,0.102907 -0.558004,0.327019 -0.731221,0.653708 -0.07592,0.141026 -0.08682,0.212934 -0.08682,0.523481 0,0.324975 0.01094,0.379114 0.101288,0.552421 0.13363,0.252838 0.350213,0.462156 0.599445,0.581361 0.173307,0.07953 0.249015,0.09405 0.5271,0.09405 0.281512,0 0.353793,-0.01472 0.527101,-0.101285 0.249229,-0.122814 0.476644,-0.361132 0.603062,-0.632005 0.133633,-0.292512 0.137239,-0.696563 0,-0.985469 -0.130024,-0.281692 -0.321339,-0.480283 -0.592212,-0.613916 -0.317759,-0.157078 -0.650745,-0.175254 -0.947745,-0.07235 z" />
    <path
       id="path24071"
       style="fill:#252525;fill-opacity:1;stroke:none;stroke-width:0.264583;stroke-linecap:round;stroke-linejoin:round"
       d="M 79.999999,44.999879 V 59.999997 H 94.999598 V 44.999879 Z m 5.396052,1.570447 c 0.386472,0 0.527122,0.01095 0.534334,0.04341 0.0072,0.02525 0.0544,0.288848 0.101285,0.581361 l 0.0832,0.534334 0.234612,0.0832 c 0.130024,0.04328 0.32155,0.126248 0.426328,0.18035 0.10478,0.0541 0.209365,0.08678 0.234611,0.07235 0.02525,-0.01443 0.234429,-0.162578 0.47284,-0.332279 l 0.426331,-0.306959 0.375687,0.375689 0.37207,0.375172 -0.34313,0.466119 -0.34675,0.465605 0.130226,0.278019 c 0.06853,0.151667 0.14424,0.350449 0.16588,0.440801 l 0.04341,0.162264 0.490926,0.07958 c 0.274479,0.04707 0.530855,0.09047 0.577744,0.101286 0.07935,0.01821 0.07956,0.02526 0.07234,0.545187 l -0.01085,0.5271 -0.537954,0.0832 c -0.292512,0.04346 -0.556111,0.08685 -0.581358,0.09767 -0.02543,0.0072 -0.0543,0.06891 -0.06873,0.130225 -0.01082,0.06149 -0.08635,0.252494 -0.16588,0.422195 -0.07953,0.169702 -0.1338,0.325118 -0.119372,0.350367 0.01082,0.02164 0.158961,0.230812 0.328662,0.469223 l 0.306957,0.426331 -0.375687,0.375687 -0.375688,0.371552 -0.465605,-0.343131 -0.466122,-0.346233 -0.278019,0.130225 c -0.151667,0.06853 -0.349933,0.14424 -0.440283,0.165883 l -0.162779,0.04341 -0.07958,0.490926 c -0.04707,0.274479 -0.09046,0.530852 -0.101285,0.577742 -0.01803,0.07935 -0.02475,0.07956 -0.544669,0.07235 l -0.527616,-0.01085 -0.08268,-0.537951 c -0.04346,-0.292512 -0.08685,-0.556112 -0.09767,-0.581361 -0.0072,-0.02525 -0.06891,-0.0543 -0.130225,-0.06873 -0.0615,-0.01082 -0.253013,-0.08635 -0.422714,-0.165883 -0.169701,-0.07953 -0.324602,-0.1338 -0.349848,-0.119372 -0.02164,0.01082 -0.231328,0.158962 -0.469739,0.328663 l -0.425817,0.306945 -0.375687,-0.375688 -0.371554,-0.375171 0.342614,-0.466122 0.34675,-0.465605 -0.130226,-0.278019 c -0.06853,-0.151667 -0.14424,-0.350449 -0.16588,-0.440801 l -0.04341,-0.162264 -0.490926,-0.07958 c -0.274479,-0.04707 -0.530844,-0.09046 -0.574125,-0.101285 -0.08296,-0.01803 -0.0832,-0.02885 -0.0832,-0.537951 3e-6,-0.386292 0.01096,-0.527122 0.04703,-0.534334 0.02164,-0.0072 0.285229,-0.0544 0.577742,-0.101288 l 0.534852,-0.0832 0.08268,-0.234612 c 0.04328,-0.130026 0.126248,-0.321553 0.18035,-0.426331 0.0541,-0.104777 0.08677,-0.209362 0.07235,-0.234611 -0.01443,-0.02525 -0.162579,-0.234429 -0.33228,-0.472837 l -0.306959,-0.426331 0.375687,-0.37569 0.375172,-0.371551 0.466121,0.34313 0.465606,0.346233 0.278019,-0.129709 c 0.151667,-0.06853 0.350449,-0.144756 0.440799,-0.166396 l 0.162263,-0.04289 0.07958,-0.491445 c 0.04707,-0.274476 0.09047,-0.530852 0.101287,-0.577741 0.01821,-0.07935 0.02903,-0.0794 0.537951,-0.07958 z m -0.115755,2.49804 c -0.38453,0.01598 -0.746292,0.179522 -1.046964,0.477488 -0.635521,0.63931 -0.635521,1.607246 0,2.246376 0.639307,0.635521 1.607246,0.635521 2.246373,0 0.635521,-0.63931 0.635521,-1.607246 0,-2.246376 -0.238231,-0.234802 -0.498189,-0.378976 -0.808736,-0.443899 -0.131828,-0.028 -0.262496,-0.03892 -0.390673,-0.03359 z m 5.819799,3.186885 0.397393,0.108519 0.396875,0.108005 -0.02119,0.195337 c -0.01443,0.108384 -0.0326,0.313917 -0.04703,0.458369 l -0.0217,0.259932 0.122991,0.0832 c 0.06871,0.04707 0.19852,0.147833 0.28887,0.223758 l 0.1695,0.137459 0.38654,-0.148312 c 0.216768,-0.07953 0.4078,-0.136911 0.433049,-0.12609 0.03985,0.01443 0.429884,0.674936 0.408241,0.689364 -0.0072,0.0036 -0.169875,0.129979 -0.361217,0.285253 -0.332187,0.26348 -0.346665,0.281752 -0.317809,0.382923 0.01443,0.0541 0.03983,0.219877 0.05426,0.367935 l 0.02532,0.264068 0.393258,0.176733 c 0.216768,0.09739 0.393774,0.191268 0.393774,0.212908 0,0.01821 -0.04357,0.195207 -0.09767,0.390157 -0.115599,0.411718 -0.06095,0.386339 -0.65319,0.31781 -0.346797,-0.04328 -0.346919,-0.04316 -0.404627,0.04341 -0.02886,0.04707 -0.133419,0.180507 -0.227375,0.296106 l -0.177253,0.209291 0.155546,0.414962 c 0.08314,0.227589 0.144674,0.419105 0.137462,0.422711 -0.03625,0.02904 -0.675455,0.38654 -0.689883,0.38654 -0.01082,0 -0.137191,-0.155395 -0.285252,-0.34313 -0.260051,-0.335796 -0.270963,-0.34308 -0.393774,-0.325046 -0.06871,0.01082 -0.245695,0.02898 -0.386541,0.04341 -0.144452,0.01082 -0.263548,0.0326 -0.263548,0.04703 0,0.01443 -0.07969,0.198856 -0.177253,0.404625 l -0.176731,0.382407 -0.368453,-0.104904 c -0.198737,-0.0541 -0.375214,-0.108035 -0.389642,-0.118857 -0.01803,-0.01064 -0.0113,-0.195259 0.01395,-0.408244 0.0615,-0.520102 0.06546,-0.491135 -0.05374,-0.563271 -0.05428,-0.03264 -0.184082,-0.133408 -0.285253,-0.223758 l -0.180864,-0.16279 -0.386022,0.144696 c -0.213164,0.07953 -0.411935,0.144177 -0.437184,0.144177 -0.03985,0 -0.411861,-0.617218 -0.411861,-0.685748 0,-0.01443 0.155398,-0.148034 0.343133,-0.292488 0.343008,-0.263658 0.346675,-0.267354 0.321426,-0.393775 -0.01443,-0.06871 -0.0362,-0.238447 -0.04702,-0.375687 l -0.02119,-0.245462 -0.397391,-0.180869 c -0.216773,-0.100991 -0.401023,-0.183978 -0.404629,-0.187584 -0.01443,-0.01082 0.198501,-0.750922 0.220141,-0.772562 0.01082,-0.01082 0.184367,7.1e-5 0.382923,0.02532 0.505495,0.05771 0.516457,0.05409 0.588595,-0.06511 0.03264,-0.05428 0.129789,-0.181149 0.220141,-0.278534 l 0.155546,-0.176738 -0.151929,-0.415478 c -0.180522,-0.480248 -0.205846,-0.411247 0.274402,-0.678511 l 0.281636,-0.155548 0.278019,0.346749 c 0.151667,0.187736 0.292563,0.343123 0.317809,0.339516 0.02164,0 0.191561,-0.02177 0.37569,-0.04341 l 0.335897,-0.04341 0.183967,-0.400492 z m -0.86868,2.003494 c -0.297,0.102907 -0.558004,0.327019 -0.731221,0.653708 -0.07592,0.141026 -0.08682,0.212934 -0.08682,0.523481 0,0.324975 0.01094,0.379114 0.101288,0.552421 0.13363,0.252838 0.350213,0.462156 0.599445,0.581361 0.173307,0.07953 0.249015,0.09405 0.5271,0.09405 0.281512,0 0.353793,-0.01472 0.527101,-0.101285 0.249229,-0.122814 0.476644,-0.361132 0.603062,-0.632005 0.133633,-0.292512 0.137239,-0.696563 0,-0.985469 -0.130024,-0.281692 -0.321339,-0.480283 -0.592212,-0.613916 -0.317759,-0.157078 -0.650745,-0.175254 -0.947745,-0.07235 z" />
    <path
       id="path24073"
       style="fill:#252525;fill-opacity:1;stroke:none;stroke-width:0.264583;stroke-linecap:round;stroke-linejoin:round"
       d="M 79.999999,4.9998813 V 19.999999 H 94.999598 V 4.9998813 Z m 5.396052,1.570447 c 0.386472,0 0.527122,0.01095 0.534334,0.04341 0.0072,0.02525 0.0544,0.288848 0.101285,0.581361 l 0.0832,0.534334 0.234612,0.0832 c 0.130024,0.04328 0.32155,0.126248 0.426328,0.18035 0.10478,0.0541 0.209365,0.08678 0.234611,0.07235 0.02525,-0.01443 0.234429,-0.162578 0.47284,-0.332279 l 0.426331,-0.306959 0.375687,0.375689 0.37207,0.375172 -0.34313,0.466119 -0.34675,0.465605 0.130226,0.278019 c 0.06853,0.151667 0.14424,0.350449 0.16588,0.440801 l 0.04341,0.162264 0.490926,0.07958 c 0.274479,0.04707 0.530855,0.09047 0.577744,0.101286 0.07935,0.01821 0.07956,0.02526 0.07234,0.545187 l -0.01085,0.5271 -0.537954,0.0832 c -0.292512,0.04346 -0.556111,0.08685 -0.581358,0.09767 -0.02543,0.0072 -0.0543,0.06891 -0.06873,0.130225 -0.01082,0.06149 -0.08635,0.252494 -0.16588,0.422195 -0.07953,0.169702 -0.1338,0.325118 -0.119372,0.350367 0.01082,0.02164 0.158961,0.230812 0.328662,0.469223 l 0.306957,0.426331 -0.375687,0.375687 -0.375688,0.371552 -0.465605,-0.343131 -0.466122,-0.346233 -0.278019,0.130225 c -0.151667,0.06853 -0.349933,0.14424 -0.440283,0.165883 l -0.162779,0.04341 -0.07958,0.490926 c -0.04707,0.274479 -0.09046,0.530852 -0.101285,0.577742 -0.01803,0.07935 -0.02475,0.07956 -0.544669,0.07235 l -0.527616,-0.01085 -0.08268,-0.537951 c -0.04346,-0.292512 -0.08685,-0.556112 -0.09767,-0.581361 -0.0072,-0.02525 -0.06891,-0.0543 -0.130225,-0.06873 -0.0615,-0.01082 -0.253013,-0.08635 -0.422714,-0.165883 -0.169701,-0.07953 -0.324602,-0.1338 -0.349848,-0.119372 -0.02164,0.01082 -0.231328,0.158962 -0.469739,0.328663 l -0.425817,0.306945 -0.375687,-0.375688 -0.371554,-0.375171 0.342614,-0.466122 0.34675,-0.465605 -0.130226,-0.278019 c -0.06853,-0.151667 -0.14424,-0.350449 -0.16588,-0.440801 L 82.406051,11.34833 81.915125,11.26875 C 81.640646,11.22168 81.384281,11.17829 81.341,11.167465 c -0.08296,-0.01803 -0.0832,-0.02885 -0.0832,-0.537951 3e-6,-0.386292 0.01096,-0.527122 0.04703,-0.534334 0.02164,-0.0072 0.285229,-0.0544 0.577742,-0.1012877 l 0.534852,-0.0832 0.08268,-0.234612 c 0.04328,-0.130026 0.126248,-0.321553 0.18035,-0.426331 0.0541,-0.104777 0.08677,-0.209362 0.07235,-0.234611 -0.01443,-0.02525 -0.162579,-0.234429 -0.33228,-0.472837 l -0.306959,-0.426331 0.375687,-0.37569 0.375172,-0.371551 0.466121,0.34313 0.465606,0.346233 0.278019,-0.129709 c 0.151667,-0.06853 0.350449,-0.144756 0.440799,-0.166396 l 0.162263,-0.04289 0.07958,-0.491445 c 0.04707,-0.274476 0.09047,-0.530852 0.101287,-0.577741 0.01821,-0.07935 0.02903,-0.0794 0.537951,-0.07958 z m -0.115755,2.49804 c -0.38453,0.01598 -0.746292,0.179522 -1.046964,0.477488 -0.635521,0.6393097 -0.635521,1.6072457 0,2.2463757 0.639307,0.635521 1.607246,0.635521 2.246373,0 0.635521,-0.63931 0.635521,-1.607246 0,-2.2463757 -0.238231,-0.234802 -0.498189,-0.378976 -0.808736,-0.443899 -0.131828,-0.028 -0.262496,-0.03892 -0.390673,-0.033589 z m 5.819799,3.1868847 0.397393,0.108519 0.396875,0.108005 -0.02119,0.195337 c -0.01443,0.108384 -0.0326,0.313917 -0.04703,0.458369 l -0.0217,0.259932 0.122991,0.0832 c 0.06871,0.04707 0.19852,0.147833 0.28887,0.223758 l 0.1695,0.137459 0.38654,-0.148312 c 0.216768,-0.07953 0.4078,-0.136911 0.433049,-0.12609 0.03985,0.01443 0.429884,0.674936 0.408241,0.689364 -0.0072,0.0036 -0.169875,0.129979 -0.361217,0.285253 -0.332187,0.26348 -0.346665,0.281752 -0.317809,0.382923 0.01443,0.0541 0.03983,0.219877 0.05426,0.367935 l 0.02532,0.264068 0.393258,0.176733 c 0.216768,0.09739 0.393774,0.191268 0.393774,0.212908 0,0.01821 -0.04357,0.195207 -0.09767,0.390157 -0.115599,0.411718 -0.06095,0.386339 -0.65319,0.31781 -0.346797,-0.04328 -0.346919,-0.04316 -0.404627,0.04341 -0.02886,0.04707 -0.133419,0.180507 -0.227375,0.296106 l -0.177253,0.209291 0.155546,0.414962 c 0.08314,0.227589 0.144674,0.419105 0.137462,0.422711 -0.03625,0.02904 -0.675455,0.38654 -0.689883,0.38654 -0.01082,0 -0.137191,-0.155395 -0.285252,-0.34313 -0.260051,-0.335796 -0.270963,-0.34308 -0.393774,-0.325046 -0.06871,0.01082 -0.245695,0.02898 -0.386541,0.04341 -0.144452,0.01082 -0.263548,0.0326 -0.263548,0.04703 0,0.01443 -0.07969,0.198856 -0.177253,0.404625 l -0.176731,0.382407 -0.368453,-0.104904 c -0.198737,-0.0541 -0.375214,-0.108035 -0.389642,-0.118857 -0.01803,-0.01064 -0.0113,-0.195259 0.01395,-0.408244 0.0615,-0.520102 0.06546,-0.491135 -0.05374,-0.563271 -0.05428,-0.03264 -0.184082,-0.133408 -0.285253,-0.223758 l -0.180864,-0.16279 -0.386022,0.144696 c -0.213164,0.07953 -0.411935,0.144177 -0.437184,0.144177 -0.03985,0 -0.411861,-0.617218 -0.411861,-0.685748 0,-0.01443 0.155398,-0.148034 0.343133,-0.292488 0.343008,-0.263658 0.346675,-0.267354 0.321426,-0.393775 -0.01443,-0.06871 -0.0362,-0.238447 -0.04702,-0.375687 l -0.02119,-0.245462 -0.397391,-0.180869 c -0.216773,-0.100991 -0.401023,-0.183978 -0.404629,-0.187584 -0.01443,-0.01082 0.198501,-0.750922 0.220141,-0.772562 0.01082,-0.01082 0.184367,7.1e-5 0.382923,0.02532 0.505495,0.05771 0.516457,0.05409 0.588595,-0.06511 0.03264,-0.05428 0.129789,-0.181149 0.220141,-0.278534 l 0.155546,-0.176738 -0.151929,-0.415478 C 88.691286,12.806983 88.665962,12.875984 89.14621,12.60872 l 0.281636,-0.155548 0.278019,0.346749 c 0.151667,0.187736 0.292563,0.343123 0.317809,0.339516 0.02164,0 0.191561,-0.02177 0.37569,-0.04341 l 0.335897,-0.04341 0.183967,-0.400492 z m -0.86868,2.003494 c -0.297,0.102907 -0.558004,0.327019 -0.731221,0.653708 -0.07592,0.141026 -0.08682,0.212934 -0.08682,0.523481 0,0.324975 0.01094,0.379114 0.101288,0.552421 0.13363,0.252838 0.350213,0.462156 0.599445,0.581361 0.173307,0.07953 0.249015,0.09405 0.5271,0.09405 0.281512,0 0.353793,-0.01472 0.527101,-0.101285 0.249229,-0.122814 0.476644,-0.361132 0.603062,-0.632005 0.133633,-0.292512 0.137239,-0.696563 0,-0.985469 -0.130024,-0.281692 -0.321339,-0.480283 -0.592212,-0.613916 -0.317759,-0.157078 -0.650745,-0.175254 -0.947745,-0.07235 z" />
    <path
       style="fill:none;fill-rule:evenodd;stroke:#252525;stroke-width:0.264583px;stroke-linecap:butt;stroke-linejoin:miter;stroke-opacity:1;marker-end:url(#Arrow2Lend)"
       d="m 64.999996,22.499999 c 10e-7,-5 5.000001,-9.999999 12.499999,-10"
       id="path27517"
       sodipodi:nodetypes="cc" />
    <path
       id="path27964"
       style="fill:none;fill-rule:evenodd;stroke:#252525;stroke-width:0.999999px;stroke-linecap:butt;stroke-linejoin:miter;stroke-opacity:1;marker-end:url(#Arrow2Lend)"
       d="M 261.67535 188.97809 C 269.69715 194.73191 280.38194 198.42519 292.91337 198.42519 "
       transform="scale(0.26458333)" />
    <path
       style="fill:none;fill-rule:evenodd;stroke:#252525;stroke-width:0.264583px;stroke-linecap:butt;stroke-linejoin:miter;stroke-opacity:1;marker-end:url(#Arrow2Lend)"
       d="m 72.499997,32.499999 c 4.999998,0 4.999998,0 4.999998,0"
       id="path28018" />
    <path
       style="fill:none;fill-rule:evenodd;stroke:#252525;stroke-width:0.264583px;stroke-linecap:butt;stroke-linejoin:miter;stroke-opacity:1;marker-end:url(#Arrow2Lend)"
       d="m 47.499998,32.499999 c 4.999998,0 4.999998,0 4.999998,0"
       id="path28446" />
    <path
       style="fill:none;fill-rule:evenodd;stroke:#252525;stroke-width:0.264583px;stroke-linecap:butt;stroke-linejoin:miter;stroke-opacity:1;marker-end:url(#Arrow2Lend)"
       d="m 22.500001,32.499999 c 4.999998,0 4.999998,0 4.999998,0"
       id="path28448" />
    <path
       style="fill:none;fill-rule:evenodd;stroke:#252525;stroke-width:0.264583px;stroke-linecap:butt;stroke-linejoin:miter;stroke-opacity:1;marker-end:url(#Arrow2Lend)"
       d="m 97.499998,32.499999 c 5.000002,0 5.000002,0 5.000002,0"
       id="path28450" />
    <path
       style="fill:none;fill-rule:evenodd;stroke:#252525;stroke-width:0.264583px;stroke-linecap:butt;stroke-linejoin:miter;stroke-opacity:1;marker-end:url(#Arrow2Lend)"
       d="m 97.499994,54.999998 c 5.000006,0 5.000006,0 5.000006,0"
       id="path28452" />
    <path
       style="fill:none;fill-rule:evenodd;stroke:#252525;stroke-width:0.264583px;stroke-linecap:butt;stroke-linejoin:miter;stroke-opacity:1;marker-end:url(#Arrow2Lend)"
       d="M 97.499994,12.5 C 102.5,12.5 102.5,12.5 102.5,12.5"
       id="path28454" />
    <text
       xml:space="preserve"
       style="font-style:normal;font-variant:normal;font-weight:bold;font-stretch:normal;font-size:2.97656px;line-height:2.64583px;font-family:Cantarell;-inkscape-font-specification:'Cantarell, Bold';font-variant-ligatures:normal;font-variant-caps:normal;font-variant-numeric:normal;font-variant-east-asian:normal;text-align:center;letter-spacing:0px;word-spacing:0px;text-anchor:middle;fill:#252525;fill-opacity:1;stroke:none;stroke-width:0.264583px;stroke-linecap:butt;stroke-linejoin:miter;stroke-opacity:1"
       x="37.5"
       y="45"
       id="text1757"><tspan
         sodipodi:role="line"
         style="font-style:normal;font-variant:normal;font-weight:bold;font-stretch:normal;font-size:2.97656px;font-family:Cantarell;-inkscape-font-specification:'Cantarell, Bold';font-variant-ligatures:normal;font-variant-caps:normal;font-variant-numeric:normal;font-variant-east-asian:normal;text-align:center;text-anchor:middle;stroke-width:0.264583px"
         x="37.5"
         y="45"
         id="tspan1759">Chom Parser</tspan><tspan
         sodipodi:role="line"
         style="font-style:normal;font-variant:normal;font-weight:bold;font-stretch:normal;font-size:2.97656px;font-family:Cantarell;-inkscape-font-specification:'Cantarell, Bold';font-variant-ligatures:normal;font-variant-caps:normal;font-variant-numeric:normal;font-variant-east-asian:normal;text-align:center;text-anchor:middle;stroke-width:0.264583px"
         x="37.5"
         y="47.645828"
         id="tspan2355">Generator</tspan></text>
    <text
       xml:space="preserve"
       style="font-style:normal;font-variant:normal;font-weight:bold;font-stretch:normal;font-size:2.97656px;line-height:2.64583px;font-family:Cantarell;-inkscape-font-specification:'Cantarell, Bold';font-variant-ligatures:normal;font-variant-caps:normal;font-variant-numeric:normal;font-variant-east-asian:normal;text-align:center;letter-spacing:0px;word-spacing:0px;text-anchor:middle;fill:#252525;fill-opacity:1;stroke:none;stroke-width:0.264583px;stroke-linecap:butt;stroke-linejoin:miter;stroke-opacity:1"
       x="12.5"
       y="45"
       id="text3727"><tspan
         sodipodi:role="line"
         style="font-style:normal;font-variant:normal;font-weight:bold;font-stretch:normal;font-size:2.97656px;font-family:Cantarell;-inkscape-font-specification:'Cantarell, Bold';font-variant-ligatures:normal;font-variant-caps:normal;font-variant-numeric:normal;font-variant-east-asian:normal;text-align:center;text-anchor:middle;stroke-width:0.264583px"
         x="12.5"
         y="45"
         id="tspan3725">Input</tspan><tspan
         sodipodi:role="line"
         style="font-style:normal;font-variant:normal;font-weight:bold;font-stretch:normal;font-size:2.97656px;font-family:Cantarell;-inkscape-font-specification:'Cantarell, Bold';font-variant-ligatures:normal;font-variant-caps:normal;font-variant-numeric:normal;font-variant-east-asian:normal;text-align:center;text-anchor:middle;stroke-width:0.264583px"
         x="12.5"
         y="47.645828"
         id="tspan4579">Grammar</tspan></text>
    <text
       xml:space="preserve"
       style="font-style:normal;font-variant:normal;font-weight:bold;font-stretch:normal;font-size:2.97656px;line-height:2.64583px;font-family:Cantarell;-inkscape-font-specification:'Cantarell, Bold';font-variant-ligatures:normal;font-variant-caps:normal;font-variant-numeric:normal;font-variant-east-asian:normal;text-align:center;letter-spacing:0px;word-spacing:0px;text-anchor:middle;fill:#252525;fill-opacity:1;stroke:none;stroke-width:0.264583px;stroke-linecap:butt;stroke-linejoin:miter;stroke-opacity:1"
       x="62.499996"
       y="45"
       id="text4961"><tspan
         sodipodi:role="line"
         style="font-style:normal;font-variant:normal;font-weight:bold;font-stretch:normal;font-size:2.97656px;font-family:Cantarell;-inkscape-font-specification:'Cantarell, Bold';font-variant-ligatures:normal;font-variant-caps:normal;font-variant-numeric:normal;font-variant-east-asian:normal;text-align:center;text-anchor:middle;stroke-width:0.264583px"
         x="62.499996"
         y="45"
         id="tspan4959">Intermediate</tspan><tspan
         sodipodi:role="line"
         style="font-style:normal;font-variant:normal;font-weight:bold;font-stretch:normal;font-size:2.97656px;font-family:Cantarell;-inkscape-font-specification:'Cantarell, Bold';font-variant-ligatures:normal;font-variant-caps:normal;font-variant-numeric:normal;font-variant-east-asian:normal;text-align:center;text-anchor:middle;stroke-width:0.264583px"
         x="62.499996"
         y="47.645828"
         id="tspan5475">Representation</tspan></text>
    <text
       xml:space="preserve"
       style="font-style:normal;font-variant:normal;font-weight:bold;font-stretch:normal;font-size:2.97656px;line-height:2.64583px;font-family:Cantarell;-inkscape-font-specification:'Cantarell, Bold';font-variant-ligatures:normal;font-variant-caps:normal;font-variant-numeric:normal;font-variant-east-asian:normal;text-align:center;letter-spacing:0px;word-spacing:0px;text-anchor:middle;fill:#252525;fill-opacity:1;stroke:none;stroke-width:0.264583px;stroke-linecap:butt;stroke-linejoin:miter;stroke-opacity:1"
       x="87.5"
       y="65"
       id="text5861"><tspan
         sodipodi:role="line"
         style="font-style:normal;font-variant:normal;font-weight:bold;font-stretch:normal;font-size:2.97656px;font-family:Cantarell;-inkscape-font-specification:'Cantarell, Bold';font-variant-ligatures:normal;font-variant-caps:normal;font-variant-numeric:normal;font-variant-east-asian:normal;text-align:center;text-anchor:middle;stroke-width:0.264583px"
         x="87.5"
         y="65"
         id="tspan5859">Dedicated</tspan><tspan
         sodipodi:role="line"
         style="font-style:normal;font-variant:normal;font-weight:bold;font-stretch:normal;font-size:2.97656px;font-family:Cantarell;-inkscape-font-specification:'Cantarell, Bold';font-variant-ligatures:normal;font-variant-caps:normal;font-variant-numeric:normal;font-variant-east-asian:normal;text-align:center;text-anchor:middle;stroke-width:0.264583px"
         x="87.5"
         y="67.645828"
         id="tspan8273">Transpilers</tspan></text>
  </g>
</svg>
